<svg width="1280" height="733" viewBox="0 0 1280 733" fill="none" xmlns="http://www.w3.org/2000/svg">
<path d="M1005 228.962C1027.5 230.962 1052.5 232.562 1068.5 226.962C1088.5 219.962 1139 202.462 1152 193.962C1165 185.462 1180.5 186.962 1188 193.962C1195.5 200.962 1215.5 201.462 1227 201.462C1238.5 201.462 1242 214.962 1241.5 217.462" stroke="#0039CB" stroke-width="15"/>
<path d="M71.4995 207.962C91.9995 151.962 56.8243 112.42 84.0964 66.1466C109.322 23.3456 164.429 4.13148 202.529 14.3979C240.629 24.6643 275.64 62.7598 278.569 95.2816C281.468 127.466 272.446 154.97 259.417 177.168C248.437 195.875 212.769 248.887 188 249.962C158.68 251.235 118.344 206.281 114.089 176.63" stroke="#0039CB" stroke-width="15"/>
<path d="M71.5 223.962C33.5 272.962 8 272.962 8 316.462C8 359.962 19.5 455.962 68.5 501.962C117.5 547.962 219.5 551.962 263.5 577.962C306.6 603.43 403.5 681.962 446.5 702.962C489.5 723.962 594.5 731.962 625.5 717.462C656.5 702.962 701.5 661.962 713 619.962C724.5 577.962 740 530.462 691 395.462" stroke="#0039CB" stroke-width="15"/>
<path d="M270.5 340.462C257 335.962 240.5 317.462 243.5 294.462" stroke="#0039CB" stroke-width="15"/>
<path d="M258 286.462C300.167 275.962 381.4 258.662 405 261.462C428.6 264.262 450 261.462 464 261.462" stroke="#0039CB" stroke-width="15"/>
<path d="M271.5 195.462C312.5 205.462 394.1 208.262 418.5 205.462C442.9 202.662 466 195.629 474.5 192.462" stroke="#0039CB" stroke-width="15"/>
<path d="M86.5 375.962C113 362.962 161.5 355.962 187 361.462C221.495 368.902 248 383.962 270 385.962C292 387.962 427.622 393.95 453 391.462C478.5 388.962 508 347.462 553 330.962C589 317.762 648 300.462 673 293.462" stroke="#0039CB" stroke-width="15"/>
<path d="M221.5 512.462C248 498.462 308.5 470.462 338.5 465.962C377.613 460.095 491.5 479.462 508 468.462C524.5 457.462 575.5 442.462 606 427.962C628.583 417.226 695.333 366.962 722.5 341.962" stroke="#0039CB" stroke-width="15"/>
<path d="M246.5 536.962C264.5 540.129 304.9 542.562 322.5 526.962C340.1 511.362 341.833 491.462 340.5 483.462" stroke="#0039CB" stroke-width="15"/>
<path d="M269.5 363.462C283.5 347.462 318.076 320.366 346 334.962C368 346.462 370 364.962 365.5 372.462" stroke="#0039CB" stroke-width="15"/>
<path d="M443.5 487.462C455.5 498.462 465.2 511.062 470 525.462C474.8 539.862 478.667 560.129 480 568.462" stroke="#0039CB" stroke-width="15"/>
<path d="M477 508.462C481.5 504.629 493.7 496.562 506.5 494.962" stroke="#0039CB" stroke-width="15"/>
<path d="M553.999 636.962C556.333 626.129 559.599 600.362 553.999 583.962C546.999 563.462 529.499 534.462 523.999 520.462C519.599 509.262 517.5 490.962 518.499 479.962" stroke="#0039CB" stroke-width="15"/>
<path d="M658.5 283.462C655.5 253.962 648 229.462 629 209.462" stroke="#0039CB" stroke-width="15"/>
<path d="M501.5 341.462C506.667 288.129 520.7 177.362 535.5 160.962C554 140.462 580 126.962 605 129.462C630 131.962 1014 257.962 1043.5 270.462C1073 282.962 1082.5 285.462 1099 277.962C1115.5 270.462 1173.5 239.962 1201.5 235.962C1229.5 231.962 1246 227.962 1259 231.962C1270 235.347 1271.68 245.462 1267.5 251.962C1263.9 257.562 1255.5 259.462 1250.5 259.462" stroke="#0039CB" stroke-width="15"/>
<path d="M1271.5 262.962C1273.17 268.796 1271.5 276.962 1257.5 281.462M1266.5 291.962C1265.33 296.796 1260.6 305.962 1251 307.962C1239 310.462 1230.5 304.462 1223 307.962C1215.5 311.462 1166.5 343.462 1152.5 355.962C1138.5 368.462 1117.5 382.462 1103 383.462C1088.5 384.462 1075 362.462 1068.5 352.462C1061.31 341.394 1041.5 338.462 1011 338.962C980.5 339.462 840.5 353.462 790.5 345.462C740.97 337.537 691 291.462 676 261.962" stroke="#0039CB" stroke-width="15"/>
<path d="M479.501 358.962C475.501 330.462 475.601 256.262 484.001 221.462C494.501 177.962 497.001 155.962 507.501 142.462C518.001 128.962 541.001 101.462 565.501 102.462C585.101 103.262 646.334 119.462 674.501 127.462" stroke="#0039CB" stroke-width="15"/>
<path d="M673 126.962L993 230.962" stroke="#0039CB" stroke-width="15"/>
</svg>
