<svg width="1317" height="783" viewBox="0 0 1317 783" fill="none" xmlns="http://www.w3.org/2000/svg">
<path d="M312 64.5C296.5 38 258 0 196.5 0C148 0 129.5 19 107 39C83.4685 59.9169 58 105 64 134.5C70 164 73.5 224 64 238.5C54.5 253 15.4998 282.5 4.99984 304C-5.50016 325.5 5.49984 400.5 15.4998 449C25.4998 497.5 51 534 83 558C115 582 220 607.5 261.5 619.5C303 631.5 363 697.5 411.5 734.5C460 771.5 510.5 777.5 562.5 781.5C614.5 785.5 662.5 776 716 728C769.5 680 773.5 585 773.5 558C773.5 536.4 750.5 450.667 739 410.5L764 385.5C769 392 811.5 399.5 847.5 400.5C883.5 401.5 1045 386.5 1059.5 385.5C1074 384.5 1072.5 406.5 1087.5 419C1102.5 431.5 1123 438 1146.5 430C1170 422 1240 359.907 1248.5 355C1257 350.093 1279 358 1295.5 348.5C1312 339 1310 320.5 1314 306.5C1318 292.5 1316 269.5 1310 251C1305.2 236.2 1290.67 233.833 1284 234.5C1282.17 228.833 1277.6 215.3 1274 206.5C1269.5 195.5 1251 201.5 1240 201.5C1229 201.5 1217 195.5 1203 188C1189 180.5 1179 183 1157 195.5C1135 208 1066.5 231.5 1043 231.5C1019.5 231.5 956 208.5 918.5 195.5C881.392 182.636 662 111.5 632.5 105.5C611.569 101.243 568 95 526.5 118C493.3 136.4 490 172.333 492.5 188C476.5 192.667 438.1 202.9 412.5 206.5C386.9 210.1 334.833 200.667 312 195.5C318 185.333 326.6 159.4 329 141C332 118 327.5 91 312 64.5Z" fill="white"/>
</svg>
