<svg width="393" height="595" viewBox="0 0 393 595" fill="none" xmlns="http://www.w3.org/2000/svg">
<path d="M163.74 458.177C159.804 466.667 155.673 476.187 155.611 483.209C155.534 491.986 155.27 514.125 156.76 520.385C158.249 526.645 155.49 532.476 151.709 534.417C147.929 536.359 144.928 544.084 143.315 548.567C141.701 553.049 135.948 552.519 135.044 551.974" stroke="#0039CB" stroke-width="8"/>
<path d="M302.885 97.2613C321.837 113.108 342.185 104.945 356.395 122.066C369.539 137.903 369.298 162.079 359.951 175.489C350.604 188.9 330.844 197.202 317.756 193.781C304.805 190.396 295.35 183.021 288.525 174.828C282.774 167.924 267.115 146.584 270.171 136.779C273.788 125.172 296.969 115.756 309.123 118.258" stroke="#0039CB" stroke-width="8"/>
<path d="M296.649 95.0168C282.88 73.3309 286.458 63.3915 269.502 57.2889C252.547 51.1864 213.514 42.2011 188.71 54.8471C163.906 67.4932 148.037 106.69 131.73 120.193C115.757 133.419 71.5524 160.172 57.3346 173.987C43.1167 187.801 25.2681 227.606 26.571 241.724C27.8739 255.841 37.542 279.133 52.2995 289.508C67.057 299.882 83.3972 312.588 142.892 312.427" stroke="#0039CB" stroke-width="8"/>
<path d="M223.321 156.24C226.969 151.609 236.495 147.773 245.039 152.169" stroke="#0039CB" stroke-width="8"/>
<path d="M246.123 158.943C244.301 176.852 239.648 210.942 235.246 219.748C230.843 228.554 228.933 237.289 226.968 242.745" stroke="#0039CB" stroke-width="8"/>
<path d="M279.7 176.971C270.05 191.55 257.511 222.963 255.179 232.867C252.848 242.77 252.458 249.743 252.5 253.5" stroke="#0039CB" stroke-width="8"/>
<path d="M235.297 79.5396C236.647 91.6926 232.571 111.579 226.85 120.747C219.111 133.149 209.522 141.367 205.656 149.662C201.791 157.956 180.43 209.979 177.84 220.22C175.237 230.51 187.274 247.831 187.393 267.686C187.487 283.57 185.954 308.994 185.175 319.721" stroke="#0039CB" stroke-width="8"/>
<path d="M163.153 113.011C164.893 125.304 167.319 152.814 164.864 165.139C161.664 181.207 138.138 222.881 140.111 230.856C142.084 238.831 140.776 260.814 142.149 274.736C143.165 285.045 153.393 318.115 159.326 332.211" stroke="#0039CB" stroke-width="8"/>
<path d="M150.096 119.318C146.337 125.89 139.72 141.296 143.332 150.345C146.943 159.393 154.457 162.861 157.762 163.463" stroke="#0039CB" stroke-width="8"/>
<path d="M214.497 152.623C218.769 160.325 224.48 177.603 214.874 186.44C207.305 193.402 199.813 191.586 197.521 188.78" stroke="#0039CB" stroke-width="8"/>
<path d="M141.753 203.05C135.782 206.184 129.51 208.197 123.224 208.048C116.938 207.899 108.496 206.563 105.061 205.913" stroke="#0039CB" stroke-width="8"/>
<path d="M128.869 213.161C129.731 215.453 131.164 221.34 129.992 226.554" stroke="#0039CB" stroke-width="8"/>
<path d="M67.979 225.147C71.8743 227.577 81.4594 232.465 88.6374 232.583C97.61 232.73 111.369 229.977 117.597 229.798C122.58 229.654 130.008 231.403 134.155 233.336" stroke="#0039CB" stroke-width="8"/>
<path d="M191.107 315.472C203.026 318.441 213.628 318.955 224.089 314.354" stroke="#0039CB" stroke-width="8"/>
<path d="M190.525 246.139C210.588 255.635 251.795 276.644 256.111 284.714C261.506 294.801 263.121 306.829 258.639 316.223C254.157 325.617 151.174 457.617 142.163 467.362C133.152 477.107 130.845 480.459 131.453 487.942C132.062 495.426 135.814 522.312 133.445 533.787C131.076 545.262 130.32 552.255 126.937 556.761C124.075 560.574 119.896 559.809 117.949 557.268C116.271 555.079 116.709 551.539 117.411 549.59" stroke="#0039CB" stroke-width="8"/>
<path d="M113.1 557.284C110.593 557.115 107.643 555.32 107.853 549.232M102.498 551.267C100.778 550.134 97.8689 547.003 98.4361 542.981C99.1451 537.952 102.676 535.481 102.364 532.067C102.052 528.652 96.4533 505.064 93.545 497.853C90.6368 490.643 88.1259 480.493 89.7703 474.701C91.4147 468.909 101.884 466.733 106.694 465.602C112.017 464.351 115.938 457.042 120.022 445.084C124.106 433.125 138.29 376.592 148.422 358.225C158.46 340.031 183.429 327.017 197.032 325.309" stroke="#0039CB" stroke-width="8"/>
<path d="M186.79 235.109C198.46 237.548 227.368 247.996 239.754 256.153C255.236 266.348 262.211 269.013 266 275C269.789 280.987 278 293 276.5 305.5C274.651 320.914 261.07 333.143 254 343" stroke="#0039CB" stroke-width="8"/>
<path d="M254.073 343.079L168.644 453.219" stroke="#0039CB" stroke-width="8"/>
</svg>
